<svg width="61" height="61" viewBox="0 0 61 61" fill="none" xmlns="http://www.w3.org/2000/svg">
<rect width="61" height="61" rx="6" fill="#CCEFFF"/>
<path d="M32.6134 15.7276C33.5695 15.7537 40.2743 16.3537 41.4422 27.8835C41.5251 28.6984 40.8283 29.3813 40.015 29.2877C38.3038 29.0897 35.3589 28.835 32.1392 28.9286C31.4133 28.9501 30.8132 28.3685 30.8132 27.6426V16.9568C30.8132 16.1373 31.5698 15.5265 32.3709 15.6984C32.4507 15.7153 32.532 15.7245 32.6134 15.7276Z" fill="#DE863E"/>
<path d="M30.6673 45.8711C39.487 45.8711 46.6368 38.9686 46.6368 30.454C46.6368 21.9394 39.487 15.037 30.6673 15.037C21.8476 15.037 14.6978 21.9394 14.6978 30.454C14.6978 38.9686 21.8476 45.8711 30.6673 45.8711Z" fill="#DE863E"/>
<path d="M37.199 22.3971C35.431 21.0758 33.2902 20.3361 30.9468 20.2778C30.8962 20.2778 30.7105 20.2747 30.6675 20.2747C30.6245 20.2747 30.5816 20.2747 30.5386 20.2747C30.4879 20.2747 30.4373 20.2747 30.3867 20.2778C28.0433 20.3361 25.9009 21.0758 24.1345 22.3971C24.1345 22.3971 19.153 25.626 19.2344 32.2143V41.5204C21.7144 44.8183 25.6768 47.0036 30.1718 47.1602C30.2286 47.1633 30.2854 47.1648 30.3422 47.1663C30.4081 47.1679 30.4741 47.1694 30.5417 47.1694C30.5831 47.1694 30.6245 47.1694 30.6675 47.1694C30.7089 47.1694 30.7504 47.1694 30.7933 47.1694C30.8593 47.1694 30.9269 47.1694 30.9928 47.1663C31.0496 47.1663 31.1064 47.1633 31.1632 47.1602C35.6582 47.0036 39.6206 44.8183 42.1006 41.5204V32.2143C42.1819 25.626 37.2005 22.3971 37.2005 22.3971H37.199Z" fill="#F5C1A6"/>
<path d="M28.0019 32.9447C28.0019 33.9315 27.3466 34.7326 26.5394 34.7326C25.7321 34.7326 25.0784 33.9331 25.0784 32.9447C25.0784 31.9564 25.7321 31.1584 26.5394 31.1584C27.3466 31.1584 28.0019 31.958 28.0019 32.9447Z" fill="#00FFBF" fill-opacity="0.19"/>
<path d="M30.8132 37.0116C31.3844 37.0116 31.8475 36.5485 31.8475 35.9772C31.8475 35.406 31.3844 34.9429 30.8132 34.9429C30.2419 34.9429 29.7788 35.406 29.7788 35.9772C29.7788 36.5485 30.2419 37.0116 30.8132 37.0116Z" fill="#00FFBF" fill-opacity="0.19"/>
<path d="M36.3012 32.9447C36.3012 33.9315 35.6474 34.7326 34.8387 34.7326C34.0299 34.7326 33.3777 33.9331 33.3777 32.9447C33.3777 31.9564 34.0314 31.1584 34.8387 31.1584C35.6459 31.1584 36.3012 31.958 36.3012 32.9447Z" fill="#00FFBF" fill-opacity="0.19"/>
<path d="M28.0019 32.9447C28.0019 33.9315 27.3466 34.7326 26.5394 34.7326C25.7321 34.7326 25.0784 33.9331 25.0784 32.9447C25.0784 31.9564 25.7321 31.1584 26.5394 31.1584C27.3466 31.1584 28.0019 31.958 28.0019 32.9447Z" fill="#11092C"/>
<path d="M36.3012 32.9447C36.3012 33.9315 35.6474 34.7326 34.8387 34.7326C34.0299 34.7326 33.3777 33.9331 33.3777 32.9447C33.3777 31.9564 34.0314 31.1584 34.8387 31.1584C35.6459 31.1584 36.3012 31.958 36.3012 32.9447Z" fill="#11092C"/>
<path d="M30.8132 37.0116C31.3844 37.0116 31.8475 36.5485 31.8475 35.9772C31.8475 35.406 31.3844 34.9429 30.8132 34.9429C30.2419 34.9429 29.7788 35.406 29.7788 35.9772C29.7788 36.5485 30.2419 37.0116 30.8132 37.0116Z" fill="#EEA57E"/>
<path d="M33.6629 38.9774H27.9402C27.7008 38.9774 27.5059 39.1708 27.5059 39.4117C27.5059 39.5667 27.5872 39.7033 27.71 39.7785C27.71 39.7785 27.7115 39.7785 27.713 39.7785C27.7437 39.7969 27.776 39.8123 27.8113 39.823C27.8113 39.823 27.8128 39.823 27.8143 39.823C28.7551 40.222 30.6918 40.2696 30.6918 40.2696H30.9143C30.9143 40.2696 32.8495 40.222 33.7902 39.823C33.8255 39.8123 33.8608 39.7969 33.8915 39.777C33.8915 39.777 33.8931 39.777 33.8946 39.777C34.0174 39.7003 34.0987 39.5652 34.0987 39.4102C34.0987 39.1708 33.9053 38.9759 33.6659 38.9759L33.6629 38.9774Z" fill="#E46025"/>
<path d="M44.849 32.2833C44.6603 32.2281 44.5406 32.2143 44.5406 32.2143H42.0974V41.5204C42.323 41.2196 42.5379 40.9096 42.7389 40.5919C46.8932 40.0517 47.2538 36.9072 47.2538 36.9072C47.7464 33.3606 45.8235 32.4951 44.849 32.2833Z" fill="#F5C1A6"/>
<path d="M17.0182 32.2143H16.7926C16.7926 32.2143 16.6729 32.2281 16.4842 32.2833C15.5096 32.4951 13.5867 33.3606 14.0794 36.9072C14.0794 36.9072 14.4385 40.0532 18.5943 40.5919C18.7953 40.9111 19.0086 41.2196 19.2358 41.5204V32.2143H17.0182Z" fill="#F5C1A6"/>
<path d="M25.3191 16.0115C25.3191 16.0115 28.1336 10.1414 34.6006 12.603C41.0676 15.0646 40.3264 17.916 45.5012 16.4903C45.5012 16.4903 45.3999 18.2428 43.7947 21.105C43.7011 21.2707 43.6044 21.4395 43.5 21.6129C41.6109 24.7728 25.3206 16.0145 25.3206 16.0145L25.3191 16.0115Z" fill="#DE863E"/>
<path d="M41.4424 27.8819C40.2745 16.3522 33.5696 15.7536 32.6135 15.726C32.5322 15.7245 32.4509 15.7153 32.3711 15.6969C31.57 15.5234 30.8134 16.1358 30.8134 16.9553C30.8134 16.1358 30.0568 15.525 29.2557 15.6969C29.1759 15.7137 29.0946 15.723 29.0133 15.726C28.0572 15.7521 21.3523 16.3522 20.1844 27.8819C20.1016 28.6968 20.7983 29.3798 21.6117 29.2862C21.6117 29.2862 24.0656 28.6554 30.3868 28.5956C30.528 28.5956 30.6676 28.5925 30.8134 28.5925C30.9577 28.5925 31.0988 28.594 31.24 28.5956C37.5612 28.6554 40.0151 29.2862 40.0151 29.2862C40.8285 29.3798 41.5252 28.6968 41.4424 27.8819Z" fill="#DE863E"/>
</svg>
