<svg preserveAspectRatio="none" overflow="visible" style="display: block;" width="24" height="24" viewBox="0 0 24 24" fill="none" xmlns="http://www.w3.org/2000/svg">
<g id="Group 2085664934">
<circle id="Ellipse 1" cx="12" cy="12" r="12" fill="#0046FF"/>
<path id="Vector" d="M18.1615 11.8858C18.1612 11.8636 18.1607 11.8415 18.1601 11.8193C18.1593 11.7881 18.1579 11.7573 18.1565 11.7261C18.1556 11.7053 18.1548 11.6848 18.1537 11.6641C18.152 11.6321 18.1497 11.6004 18.1475 11.5686C18.1461 11.549 18.145 11.5291 18.1433 11.5094C18.1408 11.4774 18.1377 11.4457 18.1349 11.414C18.1329 11.3943 18.1312 11.3747 18.1292 11.355C18.1259 11.3239 18.1222 11.293 18.1186 11.2621C18.116 11.2419 18.1138 11.2214 18.1113 11.2012C18.1073 11.1718 18.1031 11.1423 18.0989 11.1128C18.0958 11.0915 18.093 11.0699 18.0897 11.0485C18.0855 11.0213 18.0807 10.9941 18.0762 10.9669C18.0723 10.9436 18.0683 10.92 18.0641 10.8967C18.0596 10.8726 18.0549 10.8487 18.0504 10.8248C18.0453 10.7987 18.0403 10.7724 18.0349 10.7463C18.0307 10.7266 18.0262 10.707 18.022 10.6873C18.0156 10.6573 18.0091 10.627 18.0021 10.5969C17.999 10.5835 17.9956 10.5703 17.9923 10.5571C17.9836 10.5212 17.9749 10.4849 17.9656 10.4493C17.9648 10.4459 17.9636 10.4426 17.9628 10.4389C17.814 9.86998 17.5858 9.33192 17.2902 8.83848C17.2888 8.83596 17.2874 8.83371 17.286 8.83119C17.2636 8.79386 17.2408 8.75681 17.2175 8.72004C17.2144 8.71527 17.2116 8.71049 17.2085 8.70572C17.1866 8.6712 17.1645 8.63696 17.1417 8.60299C17.137 8.59598 17.1325 8.58896 17.128 8.58194C17.1066 8.54995 17.085 8.51851 17.0631 8.48707C17.057 8.47809 17.0508 8.46911 17.0446 8.46013C17.0238 8.43066 17.0028 8.40147 16.9817 8.37256C16.9739 8.36189 16.966 8.35094 16.9582 8.34028C16.9382 8.31305 16.9177 8.28639 16.8972 8.25944C16.8877 8.24709 16.8784 8.23474 16.8689 8.22239C16.8495 8.19741 16.8299 8.17271 16.8102 8.14829C16.799 8.13426 16.7881 8.12051 16.7768 8.10675C16.758 8.08374 16.7392 8.06128 16.7201 8.03855C16.7072 8.02339 16.6946 8.00796 16.6817 7.99308C16.6637 7.97203 16.6455 7.95154 16.6275 7.93077C16.6129 7.91421 16.5986 7.89793 16.5837 7.88165C16.5666 7.86256 16.5492 7.84376 16.5318 7.82467C16.5158 7.80727 16.4995 7.78959 16.4832 7.77247C16.4666 7.75506 16.4501 7.73766 16.4335 7.72054C16.4158 7.7023 16.3979 7.68377 16.3799 7.66581C16.3642 7.64981 16.3482 7.63409 16.3325 7.61837C16.3131 7.59929 16.2937 7.5802 16.2741 7.5614C16.2589 7.5468 16.2438 7.53249 16.2286 7.51817C16.2078 7.49852 16.1868 7.47916 16.1657 7.45979C16.1514 7.4466 16.1368 7.43341 16.1222 7.42021C16.1001 7.40029 16.0776 7.38036 16.0551 7.36071C16.0411 7.34864 16.0273 7.33629 16.0133 7.3245C15.9897 7.30429 15.9662 7.28437 15.9426 7.26472C15.9291 7.25349 15.9153 7.24226 15.9019 7.23104C15.8775 7.21083 15.8525 7.19118 15.8278 7.17125C15.8146 7.16059 15.8011 7.1502 15.7879 7.13982C15.7624 7.11989 15.7368 7.10024 15.711 7.08087C15.6978 7.07077 15.6843 7.06095 15.6711 7.05084C15.645 7.03147 15.6189 7.01239 15.5925 6.9933C15.5791 6.98376 15.5656 6.97394 15.5521 6.96439C15.5257 6.94559 15.4991 6.92734 15.4721 6.9091C15.4584 6.89956 15.4446 6.89029 15.4306 6.88075C15.4039 6.86279 15.377 6.84538 15.3503 6.8277C15.3357 6.81844 15.3214 6.8089 15.3068 6.79963C15.2804 6.78279 15.2537 6.76623 15.2271 6.74995C15.2116 6.74041 15.1962 6.73087 15.1805 6.72132C15.1546 6.70589 15.1288 6.69045 15.1027 6.67529C15.0859 6.66547 15.069 6.65536 15.0519 6.64582C15.0272 6.63179 15.0022 6.61803 14.9775 6.60428C14.9587 6.5939 14.9402 6.58351 14.9214 6.57341C14.8984 6.56106 14.8751 6.54871 14.8518 6.53664C14.8307 6.52569 14.8099 6.51474 14.7886 6.5038C14.7676 6.49313 14.7465 6.48275 14.7252 6.47236C14.7013 6.46057 14.6777 6.44879 14.6539 6.43756C14.6354 6.42886 14.6168 6.42016 14.5983 6.41174C14.5714 6.39911 14.5444 6.38647 14.5172 6.37441C14.502 6.36767 14.4866 6.36121 14.4714 6.35448C14.4405 6.341 14.4097 6.32753 14.3788 6.31462C14.3676 6.30985 14.3561 6.30536 14.3448 6.30087C14.3095 6.28627 14.2741 6.27196 14.2384 6.2582C14.232 6.25568 14.2255 6.25343 14.2191 6.25091C14.1784 6.23519 14.1377 6.21975 14.0967 6.20488C14.0961 6.20488 14.0958 6.20459 14.0953 6.20431C13.5387 6.00335 12.9438 5.87985 12.3232 5.84729C12.216 5.84112 12.1093 5.83831 12.0024 5.83831C12.0018 5.83831 12.0012 5.83831 12.0007 5.83831C11.8932 5.83831 11.7857 5.84112 11.6782 5.84673C10.6954 5.89809 9.77445 6.17849 8.96715 6.63544C8.96546 6.63656 8.9635 6.6374 8.96153 6.63852C8.92673 6.65817 8.8922 6.67838 8.85796 6.69887C8.85066 6.70308 8.84336 6.70729 8.83606 6.71178C8.80518 6.73031 8.77487 6.74911 8.74427 6.76792C8.7336 6.77465 8.72294 6.78111 8.71227 6.78785C8.68448 6.80553 8.65697 6.82321 8.62946 6.84117C8.61655 6.84959 8.60336 6.8583 8.59045 6.86672C8.5649 6.88356 8.53964 6.90096 8.51438 6.91808C8.4995 6.92818 8.4849 6.93857 8.47003 6.94867C8.44645 6.96523 8.42315 6.98179 8.39985 6.99835C8.38385 7.00986 8.36757 7.02165 8.35157 7.03344C8.32968 7.04944 8.30806 7.06572 8.28645 7.082C8.26932 7.09491 8.2522 7.1081 8.23536 7.12129C8.21515 7.13701 8.19466 7.15273 8.17473 7.16873C8.15648 7.18304 8.1388 7.19764 8.12083 7.21223C8.10203 7.22739 8.08322 7.24283 8.06469 7.25826C8.04561 7.27426 8.0268 7.29026 8.00799 7.30626C7.99087 7.32085 7.97347 7.33545 7.95634 7.35033C7.93585 7.36801 7.91564 7.38625 7.89571 7.40422C7.88055 7.41797 7.86511 7.43144 7.84996 7.44519C7.82694 7.46625 7.80448 7.4873 7.78175 7.50863C7.76968 7.51986 7.75733 7.53108 7.74554 7.54259C7.71101 7.57543 7.67676 7.60883 7.64308 7.64251C7.6094 7.67619 7.57599 7.71044 7.54315 7.74496C7.53164 7.75703 7.52013 7.76966 7.50862 7.78173C7.48757 7.80418 7.46652 7.82664 7.44575 7.84937C7.43199 7.86453 7.41824 7.87997 7.40448 7.8954C7.38652 7.91561 7.36855 7.93554 7.35087 7.95603C7.33599 7.97315 7.3214 7.99055 7.3068 8.00767C7.2908 8.02648 7.27452 8.04529 7.2588 8.06437C7.24336 8.0829 7.2282 8.1017 7.21305 8.12051C7.19845 8.13847 7.18385 8.15643 7.16954 8.17468C7.15354 8.19489 7.13782 8.2151 7.12238 8.23531C7.10919 8.25243 7.09599 8.26927 7.08308 8.28639C7.0668 8.308 7.05052 8.32989 7.03452 8.35179C7.02273 8.36779 7.01122 8.38378 6.99943 8.39978C6.98259 8.42308 6.96603 8.44638 6.94947 8.46995C6.93908 8.48455 6.92898 8.49914 6.91887 8.51402C6.90147 8.53928 6.88434 8.56454 6.8675 8.59008C6.8588 8.60299 6.85038 8.61591 6.84196 8.6291C6.82399 8.6566 6.80603 8.68439 6.78834 8.71218C6.78161 8.72284 6.77515 8.73351 6.76841 8.74389C6.74933 8.77449 6.73052 8.80508 6.71199 8.83568C6.70778 8.84297 6.70357 8.85027 6.69908 8.85729C6.67859 8.89181 6.65838 8.92634 6.63873 8.96114C6.63761 8.96282 6.63677 8.96451 6.63592 8.96647C6.1781 9.77455 5.89768 10.6955 5.84631 11.6781C5.8435 11.734 5.84126 11.7895 5.83985 11.8454C5.83985 11.8516 5.83985 11.8577 5.83985 11.8639C5.83873 11.9119 5.83817 11.9599 5.83817 12.0079C5.83817 12.0267 5.83873 12.0455 5.83901 12.064C5.83929 12.1005 5.83985 12.1373 5.8407 12.1738C5.84126 12.1895 5.84182 12.2049 5.84238 12.2204C5.84378 12.2614 5.84547 12.3023 5.84771 12.343C5.84827 12.3543 5.84912 12.3655 5.84996 12.377C5.85249 12.4197 5.85529 12.4623 5.85894 12.5044C5.85894 12.5058 5.85894 12.5072 5.85922 12.5086C5.92154 13.2651 6.11943 13.9802 6.42708 14.6317C6.4327 14.6435 6.43775 14.6553 6.44336 14.6668C6.45431 14.6895 6.46582 14.712 6.47677 14.7347C6.48771 14.7569 6.49866 14.779 6.50989 14.8012C6.51831 14.8175 6.52701 14.8338 6.53543 14.8501C6.55003 14.8778 6.56462 14.9059 6.5795 14.9334C6.58624 14.9458 6.59326 14.9581 6.60027 14.9708C6.6174 15.0019 6.63452 15.0331 6.6522 15.0637C6.6581 15.0738 6.66399 15.0839 6.66989 15.094C6.68898 15.1268 6.70806 15.1594 6.72771 15.1916C6.73305 15.2006 6.73866 15.2093 6.74427 15.2183C6.76477 15.2514 6.78526 15.2846 6.80603 15.3174C6.81136 15.3258 6.81698 15.3342 6.82259 15.3427C6.84392 15.3755 6.86526 15.4083 6.88715 15.4409C6.89276 15.4493 6.89866 15.4577 6.90455 15.4661C6.92645 15.4984 6.94862 15.5304 6.97108 15.5621C6.97726 15.5708 6.98371 15.5795 6.98989 15.5882C7.01206 15.6194 7.03452 15.6503 7.05754 15.6809C7.06455 15.6904 7.07185 15.6997 7.07887 15.7089C7.10133 15.7384 7.1235 15.7679 7.14652 15.7971C7.15466 15.8075 7.1628 15.8176 7.17094 15.8277C7.19312 15.8555 7.21529 15.8832 7.23775 15.9107C7.24701 15.922 7.25655 15.9332 7.2661 15.9444C7.28771 15.9705 7.30961 15.9964 7.33178 16.0219C7.34245 16.0342 7.3534 16.0466 7.36406 16.0589C7.38512 16.0831 7.40645 16.1069 7.42778 16.1308C7.44013 16.1443 7.45248 16.1577 7.46483 16.1712C7.48504 16.1934 7.50554 16.2153 7.52603 16.2372C7.54006 16.2518 7.5541 16.2664 7.56813 16.281C7.5875 16.3012 7.60715 16.3211 7.6268 16.341C7.64252 16.3567 7.65824 16.3722 7.67396 16.3879C7.69248 16.4061 7.71101 16.4241 7.72954 16.4421C7.74694 16.4589 7.76462 16.4755 7.78231 16.492C7.79971 16.5083 7.81711 16.5246 7.83452 16.5406C7.85389 16.5583 7.87325 16.5757 7.8929 16.5934C7.90918 16.608 7.92518 16.6223 7.94175 16.6366C7.96308 16.6551 7.98441 16.6736 8.00575 16.6919C8.02062 16.7045 8.0355 16.7171 8.05066 16.7298C8.07396 16.7491 8.09725 16.7682 8.12055 16.7873C8.13431 16.7983 8.14778 16.8095 8.16154 16.8204C8.18652 16.8404 8.21178 16.8603 8.23732 16.8796C8.24968 16.8892 8.26203 16.8987 8.27466 16.9083C8.3016 16.9288 8.32883 16.949 8.35606 16.9689C8.36729 16.977 8.37852 16.9855 8.38975 16.9936C8.41866 17.0144 8.44757 17.0351 8.47648 17.0554C8.48631 17.0624 8.49641 17.0691 8.50652 17.0761C8.53711 17.0972 8.56799 17.1179 8.59887 17.1387C8.60757 17.1446 8.61655 17.1502 8.62525 17.1561C8.65753 17.1772 8.6901 17.1982 8.72266 17.2187C8.73052 17.2235 8.7381 17.2285 8.74596 17.2333C8.77992 17.2544 8.81389 17.2754 8.84841 17.2959C8.85515 17.2998 8.86189 17.304 8.86862 17.308C8.90399 17.329 8.93964 17.3495 8.97557 17.3697C8.98146 17.3731 8.98736 17.3764 8.99353 17.3798C9.03031 17.4003 9.06708 17.4208 9.10441 17.4404C9.10974 17.4432 9.11508 17.4461 9.12013 17.4489C9.15803 17.4691 9.1962 17.4887 9.23466 17.5081C9.23915 17.5103 9.24392 17.5126 9.24841 17.5151C9.28743 17.5348 9.32673 17.5538 9.36631 17.5726C9.37052 17.5746 9.37473 17.5766 9.37922 17.5785C9.41908 17.5973 9.45922 17.6159 9.49964 17.6338C9.50357 17.6355 9.50778 17.6375 9.51171 17.6392C9.55241 17.6571 9.59311 17.6748 9.63438 17.6919C9.63831 17.6936 9.64252 17.6953 9.64673 17.697C9.68771 17.7141 9.72897 17.7307 9.77052 17.7467C9.77501 17.7483 9.7795 17.75 9.78399 17.7517C9.82525 17.7677 9.86652 17.7832 9.90806 17.798C9.91311 17.7997 9.91816 17.8014 9.92322 17.8034C9.96448 17.8182 10.0057 17.8326 10.0473 17.8463C10.0532 17.8483 10.0591 17.85 10.0647 17.8519C10.1054 17.8654 10.1464 17.8786 10.1874 17.8912C10.1949 17.8935 10.2022 17.8957 10.2098 17.8979C10.2494 17.91 10.2893 17.9218 10.3291 17.933C10.3387 17.9356 10.3479 17.9381 10.3575 17.9406C10.3956 17.9513 10.4338 17.9617 10.4723 17.9715C10.4849 17.9746 10.4975 17.9777 10.5102 17.9807C10.5455 17.9895 10.5812 17.9984 10.6168 18.0066C10.6354 18.0108 10.6542 18.0147 10.6727 18.0186C10.7027 18.0254 10.7328 18.0321 10.7628 18.0383C10.7976 18.0453 10.833 18.052 10.8681 18.0585C10.8821 18.061 10.8961 18.0641 10.9104 18.0666C11.0615 18.0936 11.2147 18.1152 11.3694 18.1309C11.3728 18.1312 11.3764 18.1315 11.3798 18.1318C11.4275 18.1365 11.4755 18.1407 11.5235 18.1444C11.5319 18.1449 11.5401 18.1455 11.5485 18.1461C11.5914 18.1492 11.6347 18.152 11.6779 18.1542C11.6911 18.1548 11.7043 18.1553 11.7172 18.1559C11.7556 18.1576 11.7941 18.1593 11.8325 18.1604C11.8505 18.1609 11.8688 18.1609 11.8867 18.1612C11.9201 18.1618 11.9535 18.1623 11.9872 18.1626C12.0111 18.1626 12.0349 18.1623 12.0588 18.1621C12.0863 18.1621 12.1138 18.1615 12.1413 18.1609C12.1705 18.1604 12.1997 18.1593 12.2286 18.1581C12.2508 18.1573 12.2727 18.1567 12.2949 18.1556C12.3274 18.1539 12.36 18.152 12.3925 18.15C12.4111 18.1489 12.4293 18.1478 12.4478 18.1466C12.4829 18.1441 12.5177 18.141 12.5528 18.1379C12.5685 18.1365 12.5843 18.1351 12.6 18.1337C12.6368 18.1301 12.6732 18.1261 12.7097 18.1219C12.7235 18.1202 12.7375 18.1188 12.7513 18.1172C12.7889 18.1127 12.8265 18.1076 12.8641 18.1023C12.8768 18.1006 12.8891 18.0989 12.9017 18.097C12.9399 18.0913 12.9781 18.0852 13.016 18.079C13.0278 18.077 13.0396 18.0751 13.0514 18.0731C13.0898 18.0664 13.128 18.0593 13.1662 18.052C13.1774 18.0498 13.1886 18.0478 13.1998 18.0456C13.238 18.038 13.2762 18.0301 13.3141 18.0217C13.3253 18.0192 13.3363 18.017 13.3475 18.0144C13.3854 18.006 13.423 17.997 13.4606 17.988C13.4718 17.9852 13.4828 17.9827 13.494 17.9799C13.5314 17.9706 13.5684 17.9608 13.6055 17.951C13.6167 17.9479 13.6282 17.9448 13.6394 17.9417C13.6759 17.9316 13.7124 17.9212 13.7486 17.9106C13.7604 17.9072 13.7722 17.9036 13.7837 17.9002C13.8194 17.8895 13.8547 17.8783 13.8901 17.8671C13.9022 17.8631 13.9142 17.8592 13.9263 17.8553C13.9611 17.8438 13.9956 17.832 14.0302 17.8202C14.0428 17.8157 14.0554 17.8115 14.0681 17.807C14.1017 17.7949 14.1354 17.7826 14.1688 17.7702C14.182 17.7652 14.1952 17.7604 14.2084 17.7554C14.241 17.7427 14.2735 17.7301 14.3061 17.7169C14.3198 17.7113 14.3336 17.7057 14.3471 17.7001C14.3788 17.6872 14.4102 17.6737 14.4414 17.6602C14.4557 17.654 14.47 17.6479 14.4841 17.6414C14.5146 17.6279 14.545 17.6145 14.575 17.6004C14.5899 17.5937 14.6048 17.5867 14.6196 17.5797C14.6488 17.5659 14.678 17.5519 14.7072 17.5378C14.7227 17.5303 14.7381 17.5224 14.7538 17.5148C14.7819 17.5008 14.8099 17.4865 14.8377 17.4722C14.854 17.4637 14.87 17.4553 14.886 17.4466C14.913 17.4323 14.9399 17.418 14.9666 17.4031C14.9834 17.3939 15 17.3846 15.0165 17.375C15.0424 17.3605 15.0682 17.3459 15.0937 17.331C15.1109 17.3209 15.1283 17.3108 15.1454 17.3004C15.1701 17.2858 15.1945 17.2709 15.2189 17.256C15.2366 17.2451 15.2543 17.2339 15.272 17.2229C15.2956 17.208 15.3189 17.1934 15.3422 17.1783C15.3604 17.1665 15.3784 17.1544 15.3966 17.1426C15.4191 17.1278 15.4415 17.1129 15.464 17.0977C15.4825 17.0851 15.501 17.0722 15.5193 17.0593C15.5406 17.0444 15.5622 17.0295 15.5836 17.0141C15.6024 17.0006 15.6212 16.9866 15.64 16.9728C15.6605 16.958 15.681 16.9428 15.7012 16.9276C15.7205 16.913 15.7394 16.8985 15.7584 16.8836C15.7778 16.8687 15.7975 16.8535 15.8165 16.8384C15.8359 16.823 15.8553 16.8072 15.8746 16.7918C15.8932 16.7769 15.9117 16.762 15.9302 16.7466C15.9499 16.7303 15.9692 16.7138 15.9886 16.6972C16.0063 16.6823 16.024 16.6672 16.0417 16.652C16.0613 16.6349 16.0807 16.6175 16.1003 16.6001C16.1172 16.5849 16.1343 16.5701 16.1509 16.5549C16.1705 16.5369 16.1899 16.5187 16.2092 16.5007C16.2255 16.4856 16.2418 16.4707 16.2578 16.4553C16.2775 16.4365 16.2965 16.4174 16.3159 16.3986C16.3313 16.3834 16.3471 16.3683 16.3625 16.3531C16.3819 16.3337 16.4007 16.3141 16.4198 16.2944C16.4346 16.279 16.4498 16.2638 16.4647 16.2484C16.4835 16.2285 16.502 16.2085 16.5205 16.1883C16.5351 16.1726 16.55 16.1569 16.5643 16.1412C16.5823 16.1215 16.6 16.1013 16.6177 16.0811C16.6323 16.0646 16.6471 16.0483 16.6617 16.0314C16.6775 16.0132 16.6926 15.9947 16.7083 15.9764C16.7782 15.8939 16.8459 15.8094 16.9116 15.723C16.9194 15.7123 16.9278 15.7022 16.9357 15.6915C16.9562 15.664 16.9764 15.6362 16.9963 15.6085C17.0048 15.5967 17.0135 15.5854 17.0219 15.5736C17.0418 15.5459 17.0612 15.5175 17.0805 15.4894C17.0887 15.4777 17.0971 15.4659 17.1052 15.4538C17.1246 15.4252 17.1434 15.3963 17.1625 15.3674C17.1701 15.3556 17.1782 15.3438 17.1858 15.332C17.2046 15.3025 17.2231 15.273 17.2414 15.2433C17.2487 15.2315 17.256 15.22 17.2633 15.2082C17.2815 15.1782 17.2995 15.1479 17.3175 15.1173C17.3242 15.1058 17.3312 15.094 17.3379 15.0825C17.3559 15.0516 17.3733 15.0204 17.3904 14.9893C17.3969 14.9778 17.4033 14.9665 17.4095 14.955C17.4269 14.9236 17.4435 14.8916 17.4603 14.8596C17.4662 14.8481 17.4724 14.8369 17.4783 14.8254C17.4949 14.7931 17.5111 14.7605 17.5274 14.728C17.533 14.7167 17.5386 14.7055 17.5443 14.6943C17.5603 14.6614 17.576 14.628 17.5914 14.5949C17.5968 14.5837 17.6021 14.5725 17.6071 14.5612C17.6226 14.5276 17.6375 14.4939 17.6523 14.4599C17.6571 14.449 17.6622 14.438 17.6669 14.4268C17.6815 14.3926 17.6958 14.358 17.7099 14.3235C17.7144 14.3126 17.7189 14.3013 17.7233 14.2904C17.7374 14.2556 17.7506 14.2208 17.764 14.1857C17.7683 14.1745 17.7725 14.1635 17.7767 14.1523C17.7899 14.1172 17.8025 14.0816 17.8149 14.0462C17.8188 14.035 17.8227 14.024 17.8266 14.0128C17.839 13.9771 17.8508 13.9415 17.8623 13.9056C17.8659 13.8943 17.8699 13.8828 17.8732 13.8716C17.8848 13.8357 17.8957 13.7998 17.9064 13.7638C17.9097 13.7523 17.9134 13.7405 17.9168 13.729C17.9271 13.6931 17.9372 13.6569 17.9473 13.6207C17.9507 13.6086 17.9538 13.5968 17.9572 13.5848C17.9667 13.5488 17.976 13.5126 17.9847 13.4764C17.9878 13.4638 17.9909 13.4512 17.9939 13.4388C18.0026 13.4029 18.0108 13.367 18.0186 13.3307C18.0215 13.3176 18.0245 13.3044 18.0273 13.2912C18.0349 13.2555 18.0422 13.2199 18.0492 13.184C18.052 13.1699 18.0546 13.1559 18.0574 13.1418C18.0641 13.1068 18.0703 13.0714 18.0762 13.0358C18.0787 13.0209 18.0812 13.006 18.0835 12.9908C18.0891 12.9563 18.0944 12.9215 18.0995 12.8867C18.1017 12.8707 18.104 12.8544 18.1062 12.8384C18.1107 12.8048 18.1152 12.7708 18.1191 12.7368C18.1211 12.7194 18.1233 12.7017 18.125 12.6841C18.1287 12.6515 18.132 12.6187 18.1351 12.5858C18.1368 12.5665 18.1385 12.5471 18.1402 12.528C18.1427 12.4968 18.1452 12.4654 18.1475 12.4343C18.1489 12.4129 18.1503 12.3916 18.1514 12.3703C18.1531 12.3408 18.1548 12.3113 18.1562 12.2816C18.1573 12.2577 18.1582 12.2341 18.159 12.2103C18.1598 12.1831 18.1607 12.1555 18.1612 12.128C18.1618 12.1014 18.1621 12.0747 18.1624 12.048C18.1624 12.0233 18.1626 11.9986 18.1624 11.9739C18.1624 11.9445 18.1618 11.915 18.1612 11.8858H18.1615ZM12.1391 7.33798C12.1503 7.3158 12.1781 7.29475 12.2022 7.28745C12.365 7.23833 12.9065 7.44323 13.1241 7.47439C13.8471 7.57768 14.6059 7.38204 15.2077 7.96726C15.407 8.16121 15.6004 8.6117 15.1437 8.53507C15.0151 8.51346 14.4661 8.12893 14.5349 8.52665C14.5871 8.82838 15.4359 8.84831 15.6675 9.15986C16.0549 9.68108 15.2947 10.8313 14.6915 10.1077C14.5107 9.89103 14.2205 8.95047 13.8059 9.2828C13.5097 9.52025 13.9656 9.98197 14.0012 10.2096C14.0801 10.7143 13.5364 10.9537 13.1075 10.8232C12.5309 10.6477 12.381 9.89215 12.4069 9.36812C12.431 8.87609 12.7058 8.35993 12.4776 7.89653C12.4147 7.7691 12.086 7.44211 12.1391 7.33769V7.33798ZM12.1896 17.0203C11.5235 17.2148 10.1604 16.8701 9.54932 16.5378C8.71171 16.0822 7.66582 14.845 7.67368 13.8489C7.67508 13.681 7.76883 13.5174 7.9395 13.6389C8.15031 13.7894 8.40743 14.3182 8.63873 14.536C9.02974 14.904 9.06567 14.4394 9.23718 14.152C9.92125 13.0057 9.85613 14.9786 10.0246 15.1667C10.1026 15.2537 10.2848 15.1869 10.3841 15.1588C10.6028 15.0971 11.3335 14.7513 11.5109 14.8565C11.6653 14.9483 11.4109 15.4153 11.3475 15.5338C11.2706 15.6767 10.9955 15.991 11.0401 16.1392C11.0744 16.2523 11.469 16.4401 11.5847 16.4912C11.709 16.5462 12.2415 16.7062 12.2873 16.7542C12.3726 16.8434 12.3067 16.986 12.1899 17.0203H12.1896ZM14.4487 16.5069C14.3325 16.5807 13.953 16.8199 13.8351 16.7615C13.6787 16.6843 13.9409 16.4348 13.9973 16.3357C14.6143 15.2526 13.8081 14.5057 12.9365 13.9631C11.2655 12.9229 7.67424 11.6127 8.33782 9.05236C8.57136 8.15138 9.6209 7.18501 10.5514 7.06544C10.6825 7.0486 10.8594 7.04298 10.7687 7.22627C10.7454 7.27342 10.4874 7.41404 10.4209 7.46653C9.72083 8.01862 9.36631 8.81827 9.81571 9.66284C10.5666 11.0732 13.3023 12.0065 14.5885 13.0119C15.9333 14.0633 15.9041 15.5823 14.449 16.5072L14.4487 16.5069Z" fill="#FDFDFE"/>
</g>
</svg>
