<svg width="61" height="61" viewBox="0 0 61 61" fill="none" xmlns="http://www.w3.org/2000/svg">
<path d="M30.5 61C47.3447 61 61 47.3447 61 30.5C61 13.6553 47.3447 0 30.5 0C13.6553 0 0 13.6553 0 30.5C0 47.3447 13.6553 61 30.5 61Z" fill="url(#paint0_linear_184_16424)"/>
<path d="M26.5606 43.8652C25.6798 43.8652 24.7989 43.5294 24.1246 42.858L13.8069 32.5403C12.4612 31.1946 12.4612 29.0168 13.8069 27.6712C15.1525 26.3255 17.3332 26.3255 18.676 27.6712L26.5606 35.5558L42.3242 19.7951C43.6699 18.4494 45.8476 18.4494 47.1933 19.7951C48.539 21.1408 48.539 23.3185 47.1933 24.6642L28.9966 42.8609C28.3252 43.5323 27.4415 43.868 26.5606 43.868V43.8652Z" fill="white"/>
<defs>
<linearGradient id="paint0_linear_184_16424" x1="0" y1="61" x2="61" y2="61" gradientUnits="userSpaceOnUse">
<stop stop-color="#63CCDB"/>
<stop offset="1" stop-color="#81D592"/>
</linearGradient>
</defs>
</svg>
